/* XPM */
static char *_9f07477d4c843f9c3101485a44babe465Z6HvETuf1UOPRF[] = {
/* columns rows colors chars-per-pixel */
"32 36 5 1 ",
"  c None",
". c black",
"X c #140D0D",
"o c #190D0D",
"O c #191919",
/* pixels */
"      ........    ........      ",
"      ........    ........      ",
"      ........    ........      ",
"      ........    ........      ",
"  ....oooooooo....XXXXXXXX....  ",
"  ....oooooooo....XXXXXXXX....  ",
"  ....oooooooo....XXXXXXXX....  ",
"  ....oooooooo....XXXXXXXX....  ",
"..ooooOOOOooooooXXXXXXXXXXXXXX..",
"..ooooOOOOooooooXXXXXXXXXXXXXX..",
"..ooooOOOOooooooXXXXXXXXXXXXXX..",
"..ooooOOOOooooooXXXXXXXXXXXXXX..",
"..ooooooooooooooXXXXXXXXXXXXXX..",
"..ooooooooooooooXXXXXXXXXXXXXX..",
"..ooooooooooooooXXXXXXXXXXXXXX..",
"..ooooooooooooooXXXXXXXXXXXXXX..",
"..ooooooooooooooXXXXXXXXXXXXXX..",
"..ooooooooooooooXXXXXXXXXXXXXX..",
"..ooooooooooooooXXXXXXXXXXXXXX..",
"..ooooooooooooooXXXXXXXXXXXXXX..",
"  ....ooooooooooXXXXXXXXXX....  ",
"  ....ooooooooooXXXXXXXXXX....  ",
"  ....ooooooooooXXXXXXXXXX....  ",
"  ....ooooooooooXXXXXXXXXX....  ",
"      ....ooooooXXXXXX....      ",
"      ....ooooooXXXXXX....      ",
"      ....ooooooXXXXXX....      ",
"      ....ooooooXXXXXX....      ",
"          ....ooXX....          ",
"          ....ooXX....          ",
"          ....ooXX....          ",
"          ....ooXX....          ",
"              ....              ",
"              ....              ",
"              ....              ",
"              ....              "
};
