/* XPM */
static char *cde106f233f0436fbedc64ace226abaebQ2RLOK5DaAHZAVz[] = {
/* columns rows colors chars-per-pixel */
"32 36 5 1 ",
"  c None",
". c black",
"X c #BB1313",
"o c #FF1313",
"O c #FFC8C8",
/* pixels */
"      ........    ........      ",
"      ........    ........      ",
"      ........    ........      ",
"      ........    ........      ",
"  ....oooooooo....oooooooo....  ",
"  ....oooooooo....oooooooo....  ",
"  ....oooooooo....oooooooo....  ",
"  ....oooooooo....oooooooo....  ",
"..ooooOOOOoooooooooooooooooooo..",
"..ooooOOOOoooooooooooooooooooo..",
"..ooooOOOOoooooooooooooooooooo..",
"..ooooOOOOoooooooooooooooooooo..",
"..oooooooooooooooooooooooooooo..",
"..oooooooooooooooooooooooooooo..",
"..oooooooooooooooooooooooooooo..",
"..oooooooooooooooooooooooooooo..",
"..XXXXooooooooooooooooooooXXXX..",
"..XXXXooooooooooooooooooooXXXX..",
"..XXXXooooooooooooooooooooXXXX..",
"..XXXXooooooooooooooooooooXXXX..",
"  ....XXXXooooooooooooXXXX....  ",
"  ....XXXXooooooooooooXXXX....  ",
"  ....XXXXooooooooooooXXXX....  ",
"  ....XXXXooooooooooooXXXX....  ",
"      ....XXXXooooXXXX....      ",
"      ....XXXXooooXXXX....      ",
"      ....XXXXooooXXXX....      ",
"      ....XXXXooooXXXX....      ",
"          ....XXXX....          ",
"          ....XXXX....          ",
"          ....XXXX....          ",
"          ....XXXX....          ",
"              ....              ",
"              ....              ",
"              ....              ",
"              ....              "
};
