/* XPM */
static char *a152abce55bb40869f40bd532023bb76qSb2VFuKLDAnimcG[] = {
/* columns rows colors chars-per-pixel */
"32 36 6 1 ",
"  c None",
". c black",
"X c #140D0D",
"o c #BB1313",
"O c #FF1313",
"+ c #FFC8C8",
/* pixels */
"      ........    ........      ",
"      ........    ........      ",
"      ........    ........      ",
"      ........    ........      ",
"  ....OOOOOOOO....XXXXXXXX....  ",
"  ....OOOOOOOO....XXXXXXXX....  ",
"  ....OOOOOOOO....XXXXXXXX....  ",
"  ....OOOOOOOO....XXXXXXXX....  ",
"..OOOO++++OOOOOOXXXXXXXXXXXXXX..",
"..OOOO++++OOOOOOXXXXXXXXXXXXXX..",
"..OOOO++++OOOOOOXXXXXXXXXXXXXX..",
"..OOOO++++OOOOOOXXXXXXXXXXXXXX..",
"..OOOOOOOOOOOOOOXXXXXXXXXXXXXX..",
"..OOOOOOOOOOOOOOXXXXXXXXXXXXXX..",
"..OOOOOOOOOOOOOOXXXXXXXXXXXXXX..",
"..OOOOOOOOOOOOOOXXXXXXXXXXXXXX..",
"..ooooOOOOOOOOOOXXXXXXXXXXXXXX..",
"..ooooOOOOOOOOOOXXXXXXXXXXXXXX..",
"..ooooOOOOOOOOOOXXXXXXXXXXXXXX..",
"..ooooOOOOOOOOOOXXXXXXXXXXXXXX..",
"  ....ooooOOOOOOXXXXXXXXXX....  ",
"  ....ooooOOOOOOXXXXXXXXXX....  ",
"  ....ooooOOOOOOXXXXXXXXXX....  ",
"  ....ooooOOOOOOXXXXXXXXXX....  ",
"      ....ooooOOXXXXXX....      ",
"      ....ooooOOXXXXXX....      ",
"      ....ooooOOXXXXXX....      ",
"      ....ooooOOXXXXXX....      ",
"          ....ooXX....          ",
"          ....ooXX....          ",
"          ....ooXX....          ",
"          ....ooXX....          ",
"              ....              ",
"              ....              ",
"              ....              ",
"              ....              "
};
