/* XPM */
static char *_3a748eb8e504fe59f8cced827b0e515PGyZBGpAGss1HRoX[] = {
/* columns rows colors chars-per-pixel */
"96 91 77 1 ",
"  c None",
". c black",
"X c gray1",
"o c gray12",
"O c #202020",
"+ c #222222",
"@ c #252525",
"# c gray15",
"$ c gray16",
"% c gray17",
"& c #2D2D2D",
"* c #313131",
"= c #546251",
"- c #556352",
"; c #566453",
": c #586655",
"> c #596756",
", c #5A6857",
"< c #5B6958",
"1 c #5C6A59",
"2 c #5D6B5A",
"3 c #5E6C5B",
"4 c #5F6D5C",
"5 c #606E5D",
"6 c #616F5E",
"7 c #62705F",
"8 c #657362",
"9 c #667463",
"0 c #677564",
"q c #687665",
"w c #6D7B6A",
"e c #90A18C",
"r c #95A691",
"t c #99AA95",
"y c #9AAB96",
"u c #9BAC97",
"i c #9CAD98",
"p c #9DAE99",
"a c #9EAF9A",
"s c #9FB09B",
"d c #A0B19C",
"f c #A1B29D",
"g c #A2B39E",
"h c #A3B49F",
"j c #A4B5A0",
"k c #A5B6A1",
"l c #A8B9A4",
"z c #A9BAA5",
"x c #AABBA6",
"c c #ABBCA7",
"v c #ACBDA8",
"b c #AEBFAA",
"n c #CADDC5",
"m c #CDE0C8",
"M c #CEE1C9",
"N c #CFE2CA",
"B c #D0E3CB",
"V c #D1E4CC",
"C c #D2E5CD",
"Z c #D3E6CE",
"A c #D4E7CF",
"S c #D5E8D0",
"D c #D6E9D1",
"F c #D7EAD2",
"G c #D8EBD3",
"H c #DAEDD5",
"J c #DCEFD7",
"K c #DDF0D8",
"L c #DEF1D9",
"P c #E2F5DD",
"I c #F6F6F6",
"U c #F7F9F7",
"Y c #F8FAF8",
"T c gray99",
"R c #FDFDFD",
"E c #FCFEFC",
"W c white",
/* pixels */
"................................................................................................",
"................................................................................................",
"................................................................................................",
"................................................................................................",
".XXXWWWWWTTTIIIIUUUUKKKKWEEEASSSSSSSMMMMZSZSSSSSHHHHSSSSSSSSGGGGSSSSmmmmSSSSSSSSSSSSSSSSddhhXXXX",
"XXXXWWWWTTWWIIIIUUUUKKKKEEEESSSSSSSSMMMMSZSZSSSSHHHHSSSSSSSSGGGGSSSSmmmmSSSSSSSSSSSSSSSShdddXXXX",
"XXXXWWWWTWTTIIIIUUUUKKKKEEEESSSSSSSSMMMMZSZSSSSSHHHHSSSSSSSSGGGGSSSSmmmmSSSSSSSSSSSSSSSShdddXXXX",
"XXXXWWWWTTWWIIIIUUUUKKKKEEEESSSSSSSSMMMMSZSZSSSSHHHHSSSSSSSSGGGGSSSSmmmmSSSSSSSSSSSSSSSSddhhXXX.",
"****TTTTddhdddhddhddiuuudddhdhhddddhddddbbbbyyyydhhdeeeedhhduyyydhdduuyyhddddddhxxxxhddd5333****",
"****TTTTddddhdhddhdhuuuuhhdddddddhddddddbbbbyyyyddddeeeedhhduyyydhdhyyyyddhhhhddxxxxddhd4333****",
"****TTTTddhhdhddddhduuuuddhdhddhhdhdddddbbbbyyyyhddheeeehhhhyyyyddhdyyyydhddddhdxxxxdhdh3333****",
"****TTTThddddddhhddduuuudhddhdddddhdddddbbbbyyyuhdddeeeehddhyyyyhdddyyyyddhddhddxxxxdhdd3333****",
"#$$$UUUUdhhd87574444::::5444>>>>4333444444444444877744445555<<<<4444222254444444xllljjjj4444OOOO",
"$$$$UUUUdddd55754444::::4444>>>>3333444444444444577744445555<<<<4444222254444444lllljjlj4444OOOO",
"$$$$UUUUhddh57574444::::4444>>>>3333444444444444777744445555<<<<4444222244444444lllljjjj4444OOOO",
"$$$$UUUThddd75754443:::>4444>>>,3333444444444444777744445555<<<<4443222344444445llllljlj4444OOOO",
"%%%%WWWWdhdd5444                                                                VVVVhddd4444OOOO",
"%%%%WWWWdhdh4444                                                                VVVVddhh4444OOOO",
"%%%%WWWWddhd4444                                                                VVBVdhdd4444OOOO",
"%%%%WWWWhddd4444                                                                VVZZddhd4444OOOO",
"&&&&SSSSvvvv4444                                                                PPPPdhdd9999OOOO",
"&&&&SSSSvvvv4444                                                                PPPPdhdh9999OOOO",
"&&&&SSSSvvvv4444                                                                PPPPddhd9999OOOO",
"&&&&SSSSvvvv4444                                                                PPPPhddd9999OOOo",
"$&$&SSSSdhdd4444                                                                SSSSdhdd8888oooo",
"&$&$SSSSdddh4444                                                                SSSSdddh8888oooo",
"$&$&SSSSdddh4444                                                                SSSSdddh8888oooo",
"&$&$SSSShhdd4444                                                                SSSShhdd8889oooo",
"$&$&SSSSddhd5444                                                                SSSSdddh4444OOOO",
"&$&$SSSSdhdd4444                                                                SSSSdhdd4444OOOO",
"$&$&SSSSddhh4444                                                                SSSShdhd4444OOOO",
"&$&$SSSShddd4444                                                                SSSSddhd4444OOOO",
"&$&$nnnndhhd4444                                                                SSSSdddh4444OOOO",
"$&$&nnnndddd4444                                                                SSSSdhdd4444OOOO",
"&$&$nnnnhddh4444                                                                SSSShdhd4444OOOO",
"$&$&nnnnhddd4444                                                                SSSSddhd4444OOOO",
"&$&$SSSSdddh4444                                                                SSSSxxlx4444OOOO",
"$&$&SSSSdhdd4444                                                                SSSSxxxl4444OOOO",
"&$&$SSSShdhd4444                                                                SSSSlxlx4444OOOO",
"$&$&SSSSddhd4444                                                                SSSZxlxl4444OOOO",
"&$&$SSGSlxlx2344                                                                SGGGddhh;;;;OOOO",
"$&$&GSGSxlxl4444                                                                HGGGhddd;;;;OOOO",
"&$&$SGSSlxxx4444                                                                GGGGhddd;;;;OOOO",
"$&$&SSSGxlxx4444                                                                GGGGddhh;;;;OOOO",
"$&$&SSSSddhh4444                                                                KKKKdhddqqqqOOOO",
"&$&$SSSShddd4444                                                                PKPKddhdqqqqOOOO",
"$&$&SSSShddd4444                                                                KKPKhhddqqqqOOOO",
"&$&&SSSSddhd4444                                                                KKKKdddhqqqqOOOO",
"$&$&HHHHdddh2<<<                                                                SSSShddd,,,,OOOO",
"&$&$HHHHhddh,<<<                                                                SSSSddhh,,,,OOOO",
"$&$&HHHHdddd<<<<                                                                SSSSdhdd,,,,OOOO",
"&$&$HHHHdhhd<<<<                                                                SSSSddhd,,,,OOOO",
"$&$&ASSShhhh----                                                                SSSSdhdd4444OOOO",
"&$&$SSSShhhh----                                                                SSSSdhdh4444OOOO",
"$&$&SSSShhhh----                                                                SSSSddhd4444OOOO",
"&$&$SSSShhhh----                                                                SSSShddd4444OOOO",
"$$$$JJJJdddhq000                                                                SSSShhdd4444oooo",
"$$$$JJJJhddh0000                                                                SSSSdddh4444oooo",
"$$$$JJJJdddd0000                                                                SSSSdddh4444oooo",
"$$$$JJJKdhhd0000                                                                SSSShhdd4443oooo",
"####SSSSdhhdwwww                                                                SSSSiiii::::#OOO",
"####SSSSddddwwww                                                                SSSSiiii::::OO##",
"####SSSShddhwwww                                                                SSSSiiii::>>O#OO",
"####SSSShdddwwww                                                                SSSSiiii:::,OO@O",
"$&$&JJJJiiss7575                                                                SSSSddhh5555OOOO",
"&$&$JJJJsiii5757                                                                SSSShddd5555OOOO",
"$&$&JJJJsiii7575                                                                SSSShddd5555OOOO",
"&$&$JJJJiiss5757                                                                SSSSddhd5555OOOO",
"$&$&nnnnhddd====                                                                MBMBjjjj8888OOOO",
"&$&$nnnnddhd====                                                                BMBMjjjj8888OOOO",
"$&$&nnnndhdd====                                                                MBMBjjjj8888OOOO",
"&$&$nnnndhdd===-                                                                BMBMjjjj8889OOOO",
"$&$&ZZZZrrrr,,,,                                                                SGGGdhhd4444OOOO",
"&$&$ZZZZrrrr,,,,                                                                GGSSdddd4444OOOO",
"$&$&ZZZZrrrr,,,,                                                                GSGGhddh4444OOOO",
"&$&$ZZZZrrrr,,,,                                                                GGSGhddd4444OOOO",
"$&$&SSSSssss2<2<                                                                TUUTssss----OOOO",
"&$&$SSSSssss<2<2                                                                UUUUssss----OOOO",
"$&$&SSSSssss2<2<                                                                YYUYssss----OOOO",
"&$&$SSSSssss<2<2                                                                YYYYssss----OOOO",
"$&$&GSSSdhhdBBBBAZZZSSSSSSSSGGGGMBMBZBBZASSSBZZZSSSSSSSSSSSSSSSSSSSSSSSSHHHHUUUUUUUUhshs3444#@@@",
"&$&$SSGGddddBBBBZZZZSSSSSSSSGGGGBMBMZBBZASSSZZBZSSSSSSSSSSSSSSSSSSSSSSSSHHHHUUUUUUUUshsh4444##@@",
"$&$&SGSShddhBBBBZZZZSSSSSSSSGGGGMBMBBBBBSSSSZBZZSSSSSSSSSSSSSSSSSSSSSSSSHHHHUUUUUUUUhshd4444@@@@",
"&$&&SSGShdddBBMZZZZZSSSSSSSSGGGGBMBBBZZBSSSSZBZZSSSSSSSSSSSSSSSSSSSSSSSAHHHHUUUUUUUUshsh4444@@@@",
"oOOOSSSSdddhddhhccccyyyydhhhdhdddhddttttccccdddhssiihddddddhddhhsssishshsisshshssssssddd4444oOOO",
"OOOOSSSSdhddhdddccccyyyyhhdddddhdhdhttttcccchddhiiisddhddhddhdddsisshshssssishshssssdddd4444ooOO",
"OOOOSSSShdhdhdddccccyyyyhdhhdddhddddttyyccccddddiiisdhdhhdhdhdddisisshshsssihshdssssdddd4444OOOO",
"OOOOSSSSddhdddhdccccyyyyhhdhhhddhddsttyyccccdhhdssiidhddddhdddhdssishshdiissshshssssdddd4444OOOO",
"................................................................................................",
"................................................................................................",
"................................................................................................"
};
