/* XPM */
static char *_7388cae4e764d39ef8cc143fcd54c72X4xEtuIT6C3ch68f[] = {
/* columns rows colors chars-per-pixel */
"15 1 2 1 ",
"  c #F68E92",
". c white",
/* pixels */
".             ."
};
