/* XPM */
static char *f42eb4abb1e44a7df42a52267316152bfWUaESHXZC0gGGAq[] = {
/* columns rows colors chars-per-pixel */
"1 15 2 1 ",
"  c #F79DA0",
". c white",
/* pixels */
".",
" ",
" ",
" ",
" ",
" ",
" ",
" ",
" ",
" ",
" ",
" ",
" ",
" ",
"."
};
