/* XPM */
static char *_df858c574564158904f528522c02763E0Hrgos3NxMkrYMt[] = {
/* columns rows colors chars-per-pixel */
"50 50 81 1 ",
"  c None",
". c #100F0F",
"X c #890707",
"o c #8E0707",
"O c #8B0F0F",
"+ c #970E0E",
"@ c #980A0A",
"# c #990C0C",
"$ c #9E0E0E",
"% c #8D1212",
"& c #941212",
"* c #991111",
"= c #9C1111",
"- c #9B1919",
"; c #A40000",
": c #A50000",
"> c #AE0000",
", c #A00F0F",
"< c #A50E0E",
"1 c #BA0000",
"2 c #BD0000",
"3 c #A11313",
"4 c #A51212",
"5 c #9F2525",
"6 c #C10202",
"7 c #C40000",
"8 c #C70000",
"9 c #CA0000",
"0 c #CB0000",
"q c #CC0000",
"w c #CF0000",
"e c #CE0D0D",
"r c #D10000",
"t c #D10202",
"y c #D40000",
"u c #D50000",
"i c #D60000",
"p c #D70000",
"a c #D90000",
"s c #DA0000",
"d c #DB0000",
"f c #DE0000",
"g c #DF0000",
"h c #DA0707",
"j c #DC0707",
"k c #DE0707",
"l c #D70D0D",
"z c #D70F0F",
"x c #DB0808",
"c c #DB0B0B",
"v c #DC0808",
"b c #DD0808",
"n c #DC0909",
"m c #DF0808",
"M c #DE0909",
"N c #DF0909",
"B c #DD0A0A",
"V c #CB1515",
"C c #E10000",
"Z c #E40000",
"A c #EA0303",
"S c #EE0707",
"D c #E21111",
"F c #E21212",
"G c #D12222",
"H c #D22222",
"J c #D62121",
"K c #DD2424",
"L c #DC2D2E",
"P c #E35B5C",
"I c #E35D5E",
"U c #EC6A6B",
"Y c #E88080",
"T c #EB8B8C",
"R c #F7ADAE",
"E c #F7B5B5",
"W c #F9D6D7",
"Q c #FBE7E8",
"! c #FCE8E9",
"~ c #FDECEE",
"^ c #FCEDEE",
/* pixels */
"                                                  ",
"                                                  ",
"                                                  ",
"                                                  ",
"                                                  ",
"                                                  ",
"                                                  ",
"                                                  ",
"                                                  ",
"                                                  ",
"                                                  ",
"                                                  ",
"                                                  ",
"                                                  ",
"                                                  ",
"                                                  ",
"                                                  ",
"                                                  ",
"                                                  ",
"                                                  ",
"                                                  ",
"                                                  ",
"                                                  ",
"                                                  ",
"                                                  ",
"                                                  ",
"                                                  ",
"                  .....    .....                  ",
"                 .267q6.  .a9qV5.                 ",
"                .:yUERz:..2faahe-.                ",
"                .SPWQTlZ>9CyuuuaK.                ",
"                .F~QYyuufayuuuuaG.                ",
"                .F~IyyuuuuuuuuuaG.                ",
"                .ALzyuuuuuuuuuuaJ.                ",
"                .1auuuuuuuuuuuuj3.                ",
"                 .<kuuuuuuuuuun#.                 ",
"                  .4kuuuuuuuun=.                  ",
"                   .$Duuuuuun&.                   ",
"                    .@DuuuunX.                    ",
"                     .=nuun%.                     ",
"                      .#nn%.                      ",
"                       .,o.                       ",
"                        ..                        ",
"                                                  ",
"                                                  ",
"                                                  ",
"                                                  ",
"                                                  ",
"                                                  ",
"                                                  "
};
