/* XPM */
static char *_b2d981f938d46348923e79c04f66cc07u9URsr8C4ZBbUIY[] = {
/* columns rows colors chars-per-pixel */
"64 64 132 2 ",
"   c None",
".  c #030302",
"X  c #0A0401",
"o  c #060804",
"O  c #090906",
"+  c #060609",
"@  c #0B0C0B",
"#  c #130E0A",
"$  c #14120D",
"%  c #18120F",
"&  c #040A10",
"*  c #0F0F10",
"=  c #0E1011",
"-  c #151514",
";  c #1A1611",
":  c #171813",
">  c #1C1A14",
",  c #13161B",
"<  c #1C1C1C",
"1  c #211D16",
"2  c #221F1C",
"3  c #1F211E",
"4  c #24211C",
"5  c #2A291F",
"6  c #232323",
"7  c #292626",
"8  c #272824",
"9  c #2C2A23",
"0  c #272A29",
"q  c #2C2B2B",
"w  c #312C26",
"e  c #332E2A",
"r  c #34312D",
"t  c #39342D",
"y  c #3E382F",
"u  c #343432",
"i  c #3A3631",
"p  c #3C3A35",
"a  c #363639",
"s  c #3C3C3B",
"d  c #41392F",
"f  c #423C34",
"g  c #433E3A",
"h  c #3E403D",
"j  c #45423B",
"k  c #4A433C",
"l  c #4D483F",
"z  c #50463F",
"x  c #3E3E40",
"c  c #3F4141",
"v  c #424241",
"b  c #4D4641",
"n  c #4C4945",
"m  c #4D4B49",
"M  c #534B44",
"N  c #594E46",
"B  c #534E4A",
"V  c #575147",
"C  c #575148",
"Z  c #55514B",
"A  c #585048",
"S  c #5B5148",
"D  c #59524A",
"F  c #5A534B",
"G  c #5B534B",
"H  c #5A544B",
"J  c #5D564C",
"K  c #5E564C",
"L  c #5B544B",
"P  c #565552",
"I  c #515250",
"U  c #5E5C56",
"Y  c #565658",
"T  c #5B5A5D",
"R  c #5C5C5F",
"E  c #60574E",
"W  c #635A4F",
"Q  c #61584E",
"!  c #615651",
"~  c #665B53",
"^  c #635C51",
"/  c #665C52",
"(  c #665D52",
")  c #665C53",
"_  c #665E54",
"`  c #645B53",
"'  c #695D56",
"]  c #685E55",
"[  c #666056",
"{  c #696056",
"}  c #696155",
"|  c #60605E",
" . c #64615C",
".. c #686058",
"X. c #6A6158",
"o. c #696258",
"O. c #6A615A",
"+. c #6A6458",
"@. c #6B645A",
"#. c #6F675D",
"$. c #6D645C",
"%. c #6D685B",
"&. c #71645C",
"*. c #70695D",
"=. c #71695E",
"-. c #606265",
";. c #676465",
":. c #676560",
">. c #686567",
",. c #6B6863",
"<. c #6B6A6B",
"1. c #736B62",
"2. c #776A62",
"3. c #756C62",
"4. c #757166",
"5. c #7B726A",
"6. c #79746B",
"7. c #79746B",
"8. c #7D7771",
"9. c #847C73",
"0. c #847F79",
"q. c #8F837C",
"w. c #89847D",
"e. c #95887E",
"r. c #8E8D85",
"t. c #908E87",
"y. c #9A8B80",
"u. c #9B8D83",
"i. c #988F84",
"p. c #9E9C97",
"a. c #A09E95",
"s. c #ACAAA3",
/* pixels */
"                                                                                                                      7         ",
"                                                                                                                    - .         ",
"                                                                                                                  < .           ",
"                                                                                                                < -             ",
"                                                                                                              2 $               ",
"                                                                                                            6 O                 ",
"                                                                                                          < @                   ",
"                                                                                                        $ o                     ",
"                                                                                                      - o                       ",
"                                                                                                    $ .                         ",
"                                                                                                  - .                           ",
"                                                                                                f #                             ",
"                                                                                              g 1                               ",
"                                                                                            l ;                                 ",
"                                                                                          M >                                   ",
"                                                                                        k >                                     ",
"                                                                                      g $                                       ",
"                                                                                >.R b .                                         ",
"                                                                              ) ~ - .                                           ",
"                                                                            ) ' N k >                                           ",
"                                                                            g i 4 t E                                           ",
"                                                                          9 - - 1 g S t                                         ",
"                                                                6 6     w o - o   f w     q.                                    ",
"                                                                , @ ,.=.t @ .               i.                                  ",
"                                                              , < h ] l 9 $                   z                                 ",
"                                                            @ = B 2.f 4 %                                                       ",
"                                                          < , B e.l $ X                             v                           ",
"                                                        2 < B u.C $ $                                                           ",
"                                                      < & m e.K ; ; f s                                                         ",
"                                                        a N W 1 X f i h                                                         ",
"                                          0 m           K y 1 $ M i a   <.                                                      ",
"                                        q x n i       z f 4 %     -.    T                                                       ",
"                                      0 x B r 6     M f 4 ;         -.>.v                                                       ",
"                                    x a n t 7     M f w ;           < @ Y                                                       ",
"                                  e a m w 2     5.j > 4           < *                                                           ",
"                                q # k q q   1.#.f i t           6 :                                                             ",
"                              0 - t n     5.^ M w z O.        u 3                                                               ",
"                            8 $ u u     O.) C r b { r       v 0                                                                 ",
"                          3 : r m c u X.{ N e l #.L 6 0 a a p                                                                   ",
"                        u 4 t n P r K +.D e b @.f f   q 4 u                                                                     ",
"                        r p v m g D =.C t l ~ k j       u n                                                                     ",
"                      n t < s i L 3.N r l ) B                                                                                   ",
"                    m a 0   r C 3.D t l @.j 0                                                                                   ",
"                  u j p     =.+.H i k ` m p 8 3                                                                                 ",
"                s v e       W z w w j k j h u 3 >                                                                               ",
"              g j r         g e f j 5 l %.n i 4 v                                                                               ",
"              | a         7 2 f =.S p ^ K h 5 h                                                                                 ",
"                          r d W Q k     +.J h                                                                                   ",
"                          _ ) ) y Z                                                                                             ",
"                          ~ _ g l H U                                                                                           ",
"                          4.q = y D                                                                                             ",
"                        0.s.6 . O                                                                                               ",
"          6.C Z       w.p.    : > 3                                                                                             ",
"        4...$.k     8.r.      8 ; o                                                                                             ",
"      4.[ [ K m   9.p.          @ 4                                                                                             ",
"    4.) ` ! n   0.t.            @ I                                                                                             ",
"  2.! ` ! n   w.t.                                                                                                              ",
"u b &.~ ! g ..r.                                                                                                                ",
", < G ' 1.D g                                                                                                                   ",
"  < - G 9.M g                                                                                                                   ",
"    + a N l A ;.                                                                                                                ",
"      a * A L k                                                                                                                 ",
"        6 - f j                                                                                                                 ",
"          x e                                                                                                                   "
};
